# WaveFront *.obj file (generated by Cinema 4D)

v 0.000000 -1.000000 0.000000
v 0.000000 1.000000 0.000000
v 1.000000 0.000000 0.000000
v 0.000000 0.000000 -1.000000
v -1.000000 0.000000 -0.000000
v -0.000000 0.000000 1.000000
# 6 vertices

vn 0.577350 -0.577350 -0.577350
vn 0.577350 0.577350 -0.577350
vn -0.577350 -0.577350 -0.577350
vn -0.577350 0.577350 -0.577350
vn -0.577350 -0.577350 0.577350
vn -0.577350 0.577350 0.577350
vn 0.577350 -0.577350 0.577350
vn 0.577350 0.577350 0.577350
# 8 normals

vt 0.000000 0.000000 0.000000
vt 0.000000 0.500000 0.000000
vt 0.250000 0.500000 0.000000
vt 0.000000 1.000000 0.000000
vt 0.250000 0.000000 0.000000
vt 0.500000 0.500000 0.000000
vt 0.250000 1.000000 0.000000
vt 0.500000 0.000000 0.000000
vt 0.750000 0.500000 0.000000
vt 0.500000 1.000000 0.000000
vt 0.750000 0.000000 0.000000
vt 1.000000 0.500000 0.000000
vt 0.750000 1.000000 0.000000
# 13 texture coordinates

o atlas
usemtl default
f 4/3/1 3/2/1 1/1/1
f 2/4/2 3/2/2 4/3/2
f 5/6/3 4/3/3 1/5/3
f 2/7/4 4/3/4 5/6/4
f 6/9/5 5/6/5 1/8/5
f 2/10/6 5/6/6 6/9/6
f 3/12/7 6/9/7 1/11/7
f 2/13/8 6/9/8 3/12/8

